# xmcd CD database file
#
# Track frame offsets:
#	150
#	18120
#	48282
#	62580
#	77172
#	98585
#	111235
#	138650
#	157150
#	172900
#	187830
#	206342
#	218620
#	235772
#
# Disc length: 3317 seconds
#
# Revision: 0
# Processed by: cddbd v1.5PL3 Copyright (c) Steve Scherf et al.
# Submitted via: CDex 1.50
#
DISCID=ad0cf30e
DTITLE=Brownie Mcghee e Sonny Terry  - The Giants of the Blues 
DYEAR=2002
DGENRE=Blues
TTITLE0=I`m a Strange Here 
TTITLE1=Everybody`s Blue 
TTITLE2=Walk On
TTITLE3=Down By the Riverside 
TTITLE4=Blues for the Lowlands 
TTITLE5=Right On That Share 
TTITLE6=Blowin` the Fuse 
TTITLE7=Lost John 
TTITLE8=Chain Gang Blues 
TTITLE9=It Takes a Chain Gang 
TTITLE10=Betty and Dupree 
TTITLE11=Stackhole 
TTITLE12=Rock Me Momma 
TTITLE13=Chain Gang Special 
EXTD=YEAR: 2002
EXTT0=
EXTT1=
EXTT2=
EXTT3=
EXTT4=
EXTT5=
EXTT6=
EXTT7=
EXTT8=
EXTT9=
EXTT10=
EXTT11=
EXTT12=
EXTT13=
PLAYORDER=
